<svg xmlns="http://www.w3.org/2000/svg" width="780" height="440" viewBox="0 0 780 440" fill="none"><g clip-path="url(#clip0_298_59)"><rect width="780" height="440" fill="white"></rect><g clip-path="url(#clip1_298_59)"><path d="M819.294 439.961L819.294 -55.039L-7.70569 -55.039L-7.70571 439.961L819.294 439.961Z" fill="#0C3F89"></path><g filter="url(#filter0_f_298_59)"><ellipse cx="209.108" cy="245.433" rx="209.108" ry="245.433" transform="matrix(0.306983 0.951715 -0.976112 0.217269 276.733 -56.3347)" fill="#205BC3"></ellipse></g><g filter="url(#filter1_f_298_59)"><ellipse cx="209.108" cy="245.433" rx="209.108" ry="245.433" transform="matrix(0.306983 0.951715 -0.976112 0.217269 311.785 -36.9228)" fill="#205BC3"></ellipse></g></g><path d="M390 318.212C444.241 318.212 488.212 274.241 488.212 220C488.212 165.759 444.241 121.788 390 121.788C335.759 121.788 291.788 165.759 291.788 220C291.788 274.241 335.759 318.212 390 318.212Z" fill="white" stroke="black" stroke-width="1.5" stroke-miterlimit="10"></path><path d="M413.074 184.399C409.002 184.438 405.794 187.947 405.794 192.019V250.421C405.794 254.494 409.002 258.002 413.074 258.041C417.535 258.08 420.519 255.125 420.519 250.674V191.757C420.519 187.305 417.535 184.351 413.074 184.39V184.399Z" fill="#56ADF5" stroke="black" stroke-width="1.5" stroke-miterlimit="10"></path><path d="M435.177 199.134C431.105 199.172 427.898 202.681 427.898 206.753V235.707C427.898 239.779 431.105 243.288 435.177 243.326C439.638 243.365 442.622 240.411 442.622 235.959V206.501C442.622 202.049 439.638 199.095 435.177 199.134Z" fill="#56ADF5" stroke="black" stroke-width="1.5" stroke-miterlimit="10"></path><path d="M390.982 162.307C386.91 162.346 383.702 165.855 383.702 169.927V272.522C383.702 276.594 386.91 280.103 390.982 280.142C395.443 280.181 398.427 277.226 398.427 272.775V169.674C398.427 165.223 395.443 162.268 390.982 162.307Z" fill="#56ADF5" stroke="black" stroke-width="1.5" stroke-miterlimit="10"></path><path d="M368.89 199.134C364.818 199.172 361.61 202.681 361.61 206.753V235.707C361.61 239.779 364.818 243.288 368.89 243.326C373.351 243.365 376.335 240.411 376.335 235.959V206.501C376.335 202.049 373.351 199.095 368.89 199.134Z" fill="#56ADF5" stroke="black" stroke-width="1.5" stroke-miterlimit="10"></path><path d="M346.802 184.399C342.729 184.438 339.522 187.947 339.522 192.019V250.421C339.522 254.494 342.729 258.002 346.802 258.041C351.263 258.08 354.247 255.125 354.247 250.674V191.757C354.247 187.305 351.263 184.351 346.802 184.39V184.399Z" fill="#56ADF5" stroke="black" stroke-width="1.5" stroke-miterlimit="10"></path><path d="M287.3 170.55L218.2 136.35" stroke="white" stroke-width="1.5" stroke-miterlimit="10" stroke-linecap="round" stroke-linejoin="round"></path><path d="M494.099 172.25L566.599 136.35" stroke="white" stroke-width="1.5" stroke-miterlimit="10" stroke-linecap="round" stroke-linejoin="round"></path><path d="M290 274.75L213.4 313.15" stroke="white" stroke-width="1.5" stroke-miterlimit="10" stroke-linecap="round" stroke-linejoin="round"></path><path d="M491.7 272.65L566.6 309.75" stroke="white" stroke-width="1.5" stroke-miterlimit="10" stroke-linecap="round" stroke-linejoin="round"></path><path d="M637.862 144.205L630.646 148.772L634.155 154.333C636.141 153.406 638.722 151.884 641.238 149.567L637.862 144.205Z" fill="#C7DBF9" stroke="#162020" stroke-width="1.5" stroke-miterlimit="10" stroke-linecap="round" stroke-linejoin="round"></path><path d="M646.997 158.636L641.238 149.501C638.722 151.818 636.14 153.34 634.155 154.267L639.781 163.137L646.997 158.636Z" fill="#56ADF5" stroke="#162020" stroke-width="1.5" stroke-miterlimit="10" stroke-linecap="round" stroke-linejoin="round"></path><path d="M686.846 223.905L681.154 227.479C678.373 229.267 674.666 228.406 672.945 225.626L637.928 170.154C636.14 167.373 637.001 163.666 639.781 161.945L645.474 158.371C648.254 156.583 651.961 157.444 653.682 160.224L688.7 215.697C690.487 218.477 689.627 222.118 686.846 223.905Z" fill="#C7DBF9" stroke="#162020" stroke-width="1.5" stroke-miterlimit="10" stroke-linecap="round" stroke-linejoin="round"></path><path d="M576.829 59.7388C552.336 75.2286 544.988 107.598 560.478 132.091C575.968 156.584 608.338 163.931 632.83 148.441C657.323 132.952 664.671 100.582 649.181 76.0892C633.757 51.5967 601.321 44.2489 576.829 59.7388ZM641.635 80.9215C654.41 101.177 648.387 128.053 628.131 140.829C607.875 153.605 580.999 147.581 568.223 127.325C555.447 107.069 561.471 80.1933 581.727 67.4175C602.049 54.5755 628.859 60.6655 641.635 80.9215Z" fill="#56ADF5" stroke="#162020" stroke-width="1.5" stroke-miterlimit="10" stroke-linecap="round" stroke-linejoin="round"></path><path d="M605.293 148.11C629.531 148.11 649.181 128.461 649.181 104.222C649.181 79.9838 629.531 60.3345 605.293 60.3345C581.054 60.3345 561.405 79.9838 561.405 104.222C561.405 128.461 581.054 148.11 605.293 148.11Z" fill="white" stroke="#231F20" stroke-width="1.5" stroke-miterlimit="10" stroke-linecap="round" stroke-linejoin="round"></path><path d="M605.293 148.11C629.531 148.11 649.181 128.461 649.181 104.222C649.181 79.9838 629.531 60.3345 605.293 60.3345C581.054 60.3345 561.405 79.9838 561.405 104.222C561.405 128.461 581.054 148.11 605.293 148.11Z" stroke="#231F20" stroke-width="1.5" stroke-miterlimit="10" stroke-linecap="round" stroke-linejoin="round"></path><path d="M629.534 109.248H617.269V99.1966H629.534C631.409 99.1966 632.938 97.6812 632.938 95.7926C632.938 93.904 631.409 92.3886 629.534 92.3886H617.269V79.9815C617.269 78.0973 615.74 76.5775 613.865 76.5775C612.928 76.5775 612.079 76.9553 611.461 77.5774C610.843 78.1862 610.461 79.0438 610.461 79.9815V92.3886H600.423V79.9815C600.423 78.0973 598.894 76.5775 597.019 76.5775C596.072 76.5775 595.223 76.9553 594.615 77.5774C593.997 78.1862 593.615 79.0438 593.615 79.9815V92.3886H581.052C579.177 92.3886 577.648 93.9173 577.648 95.7926C577.648 96.7302 578.026 97.5879 578.648 98.1967C579.266 98.8144 580.114 99.1966 581.052 99.1966H593.615V109.248H581.052C579.177 109.248 577.648 110.764 577.648 112.652C577.648 113.59 578.026 114.439 578.648 115.057C579.266 115.674 580.114 116.056 581.052 116.056H593.615V128.464C593.615 130.348 595.13 131.868 597.019 131.868C598.907 131.868 600.423 130.352 600.423 128.464V116.056H610.461V128.464C610.461 130.348 611.99 131.868 613.865 131.868C615.74 131.868 617.269 130.352 617.269 128.464V116.056H629.534C631.409 116.056 632.938 114.528 632.938 112.652C632.938 110.777 631.409 109.248 629.534 109.248ZM610.461 109.248H600.423V99.1966H610.461V109.248Z" fill="#0C3F89" stroke="#162020" stroke-width="1.5" stroke-miterlimit="10"></path><path d="M696.943 387.125V256.488H552.361V363.192H661.714L696.457 387.115C697.084 387.504 696.943 387.115 696.943 387.115V387.125Z" fill="white" stroke="black" stroke-width="1.5" stroke-miterlimit="10"></path><path d="M660.869 300.246C667.478 300.246 672.836 294.888 672.836 288.28C672.836 281.671 667.478 276.313 660.869 276.313C654.26 276.313 648.903 281.671 648.903 288.28C648.903 294.888 654.26 300.246 660.869 300.246Z" fill="#205BC3" stroke="black" stroke-width="1.5" stroke-miterlimit="10"></path><path d="M674.265 312.407H575.852" stroke="black" stroke-width="1.5" stroke-linecap="round" stroke-linejoin="round"></path><path d="M674.265 326.157H575.852" stroke="black" stroke-width="1.5" stroke-linecap="round" stroke-linejoin="round"></path><path d="M674.265 339.908H575.852" stroke="black" stroke-width="1.5" stroke-linecap="round" stroke-linejoin="round"></path><path d="M248.864 168.916H68.0175V61.1291C68.0175 55.8822 72.2723 51.6217 77.5249 51.6217H239.357C244.603 51.6217 248.864 55.8765 248.864 61.1291V168.916Z" fill="#56ADF5" stroke="#162020" stroke-width="1.5" stroke-miterlimit="10"></path><path d="M54.8402 168.921H262.357C262.357 176.416 256.267 182.5 248.778 182.5H68.4246C60.93 182.506 54.8402 176.416 54.8402 168.921Z" fill="#C7DBF9" stroke="#162020" stroke-width="1.5" stroke-miterlimit="10"></path><path d="M78.0753 60.5729H237.9C239.139 60.5729 240.142 61.5019 240.142 62.643V160.343C240.142 161.484 239.139 162.413 237.9 162.413H78.0753C76.8367 162.413 75.839 161.484 75.839 160.343V62.643C75.839 61.5019 76.8367 60.5729 78.0753 60.5729Z" fill="white" stroke="#162020" stroke-width="1.5" stroke-miterlimit="10"></path><path d="M176.326 168.984C176.326 171.594 174.25 173.669 171.641 173.669H145.55C142.941 173.669 140.865 168.984 140.865 168.984H176.326Z" fill="white" stroke="#162020" stroke-width="1.5" stroke-miterlimit="10"></path><path d="M138.953 315.167C139.306 306.564 142.725 298.073 149.28 291.504C149.549 291.235 149.845 290.995 150.128 290.741C156.994 284.298 165.781 281.077 174.569 281.12V244.303C156.358 244.261 138.148 251.07 124.077 264.703C123.808 264.972 123.526 265.226 123.243 265.495C109.483 279.255 102.447 297.169 102.094 315.196H138.939L138.953 315.167Z" fill="#56ADF5" stroke="black" stroke-width="1.5" stroke-miterlimit="10"></path><path d="M198.841 290.881L224.893 264.829C210.892 251.168 192.752 244.316 174.57 244.274V281.09C183.315 281.133 192.046 284.41 198.841 290.881Z" fill="white" stroke="black" stroke-width="1.5" stroke-miterlimit="10"></path><path d="M174.572 388.927C193.023 388.884 211.473 381.82 225.544 367.749C225.813 367.481 226.067 367.198 226.336 366.916L200.284 340.864C200.016 341.147 199.79 341.444 199.521 341.712C192.627 348.606 183.614 352.068 174.572 352.11C165.431 352.152 156.262 348.691 149.283 341.712C149.071 341.5 148.888 341.26 148.676 341.048C141.81 333.829 138.575 324.448 138.942 315.152H102.097C101.73 333.857 108.567 352.675 122.624 367.085C122.836 367.297 123.034 367.523 123.246 367.735C137.416 381.905 155.994 388.955 174.558 388.913L174.572 388.927Z" fill="#A1C2F8" stroke="black" stroke-width="1.5" stroke-miterlimit="10"></path><path d="M246.691 315.167C246.338 297.14 239.302 279.226 225.542 265.466C225.33 265.254 225.104 265.056 224.892 264.844L198.841 290.896C199.067 291.108 199.293 291.291 199.505 291.503C206.074 298.073 209.493 306.577 209.832 315.167C210.199 324.378 207.021 333.674 200.268 340.879L226.319 366.931C240.263 352.549 247.058 333.801 246.677 315.167H246.691Z" fill="#C7DBF9" stroke="black" stroke-width="1.5" stroke-miterlimit="10"></path><path d="M123.71 134.76C123.719 134.756 123.724 134.751 123.73 134.751C123.739 134.749 123.746 134.751 123.755 134.751C124.228 134.751 124.703 134.751 125.177 134.751C125.183 134.751 125.19 134.751 125.194 134.751C125.196 134.753 125.196 134.753 125.199 134.756C125.199 134.758 125.199 134.758 125.199 134.76C125.203 135.128 125.201 136.076 125.196 136.145C125.183 136.145 125.168 136.145 125.155 136.145C124.91 136.145 124.664 136.145 124.419 136.145C124.395 136.145 124.369 136.136 124.344 136.153C124.342 136.156 124.336 136.153 124.329 136.153C124.314 136.153 124.3 136.153 124.285 136.156C124.276 136.169 124.261 136.162 124.25 136.165C124.241 136.18 124.219 136.167 124.21 136.184C124.195 136.182 124.186 136.2 124.171 136.195C124.166 136.195 124.162 136.202 124.155 136.204C124.142 136.206 124.135 136.224 124.12 136.226C124.111 136.228 124.104 136.239 124.1 136.246C124.093 136.255 124.082 136.25 124.076 136.259C124.063 136.277 124.043 136.288 124.034 136.31C124.016 136.323 124.014 136.347 124.001 136.365C123.999 136.369 123.997 136.376 123.994 136.38C123.99 136.385 123.99 136.391 123.988 136.396C123.986 136.398 123.983 136.402 123.983 136.402C123.99 136.424 123.968 136.44 123.972 136.462C123.966 136.475 123.961 136.49 123.961 136.506C123.964 136.521 123.961 136.534 123.961 136.55C123.961 136.805 123.961 137.063 123.961 137.318C123.961 137.331 123.961 137.344 123.961 137.358C124.375 137.358 124.785 137.358 125.192 137.358C125.194 137.36 125.196 137.362 125.196 137.362C125.196 137.364 125.196 137.364 125.196 137.366C125.196 137.395 125.196 137.426 125.196 137.454C125.196 137.465 125.183 137.472 125.185 137.485C125.188 137.496 125.185 137.507 125.185 137.518C125.185 137.527 125.185 137.538 125.185 137.547C125.185 137.558 125.185 137.569 125.185 137.58C125.185 137.589 125.185 137.595 125.179 137.602C125.174 137.606 125.177 137.613 125.177 137.62C125.177 137.648 125.177 137.679 125.177 137.708C125.177 137.719 125.181 137.73 125.17 137.738C125.166 137.741 125.168 137.749 125.168 137.756C125.168 137.78 125.168 137.804 125.168 137.829C125.168 137.842 125.172 137.855 125.159 137.864C125.155 137.866 125.157 137.875 125.157 137.881C125.157 137.906 125.157 137.93 125.157 137.954C125.157 137.97 125.163 137.987 125.148 138C125.146 138.003 125.148 138.007 125.148 138.009C125.148 138.011 125.148 138.011 125.148 138.014C125.148 138.025 125.148 138.036 125.148 138.047C125.148 138.058 125.148 138.069 125.148 138.08C125.148 138.088 125.146 138.099 125.148 138.108C125.15 138.121 125.139 138.128 125.139 138.139C125.139 138.161 125.139 138.185 125.139 138.207C125.139 138.218 125.139 138.229 125.139 138.24C125.139 138.251 125.139 138.262 125.13 138.271C125.128 138.273 125.13 138.28 125.13 138.284C125.13 138.317 125.13 138.35 125.13 138.381C125.13 138.397 125.115 138.408 125.119 138.425C125.121 138.441 125.119 138.458 125.119 138.474C125.119 138.489 125.119 138.507 125.119 138.522C125.119 138.535 125.106 138.546 125.108 138.562C125.11 138.575 125.108 138.59 125.108 138.606C125.108 138.621 125.108 138.634 125.108 138.65C125.108 138.663 125.095 138.67 125.097 138.685C125.099 138.698 125.097 138.711 125.097 138.725C125.088 138.729 125.08 138.738 125.071 138.74C125.062 138.742 125.051 138.74 125.042 138.74C124.708 138.74 124.373 138.74 124.038 138.74C124.023 138.74 124.005 138.74 123.992 138.74C123.99 138.742 123.988 138.744 123.988 138.744C123.988 138.747 123.988 138.747 123.988 138.749C123.988 138.758 123.988 138.764 123.988 138.773C123.988 140.116 123.988 141.461 123.988 142.804C123.988 142.806 123.988 142.81 123.988 142.812C123.988 142.815 123.988 142.815 123.988 142.817C123.988 142.819 123.988 142.821 123.988 142.821C123.988 142.823 123.986 142.823 123.983 142.826C123.424 142.826 122.865 142.826 122.308 142.826C122.306 142.823 122.304 142.823 122.304 142.821C122.304 142.819 122.304 142.815 122.304 142.812C122.304 141.463 122.304 140.111 122.304 138.762C122.297 138.753 122.288 138.758 122.282 138.758C122 138.758 121.721 138.758 121.439 138.758C121.423 138.758 121.406 138.758 121.39 138.758C121.386 138.7 121.384 137.886 121.388 137.351C121.39 137.349 121.39 137.349 121.393 137.347C121.395 137.347 121.395 137.344 121.397 137.344C121.688 137.344 121.978 137.344 122.269 137.344C122.271 137.344 122.271 137.342 122.273 137.342C122.277 137.338 122.275 137.329 122.275 137.325C122.275 137.267 122.275 137.21 122.275 137.155C122.275 137.133 122.266 137.107 122.284 137.085C122.286 137.08 122.284 137.071 122.284 137.065C122.284 136.809 122.284 136.556 122.284 136.301C122.284 136.29 122.288 136.279 122.277 136.27C122.273 136.268 122.275 136.259 122.275 136.253C122.275 136.215 122.275 136.178 122.275 136.14C122.275 136.127 122.282 136.12 122.284 136.109C122.286 136.098 122.284 136.087 122.284 136.076C122.284 136.054 122.284 136.035 122.284 136.013C122.284 136.004 122.286 135.995 122.284 135.988C122.277 135.969 122.297 135.958 122.295 135.938C122.293 135.922 122.295 135.905 122.295 135.889C122.315 135.874 122.299 135.852 122.306 135.834C122.31 135.823 122.319 135.812 122.315 135.799C122.313 135.788 122.317 135.777 122.324 135.768C122.315 135.746 122.337 135.731 122.335 135.709C122.332 135.698 122.35 135.689 122.343 135.674C122.359 135.665 122.348 135.643 122.363 135.634C122.357 135.616 122.377 135.605 122.374 135.59C122.374 135.583 122.379 135.577 122.383 135.57C122.39 135.561 122.392 135.553 122.394 135.539C122.394 135.533 122.401 135.522 122.405 135.515C122.412 135.506 122.41 135.493 122.421 135.487C122.416 135.473 122.434 135.469 122.432 135.458C122.44 135.453 122.44 135.442 122.445 135.434C122.451 135.425 122.458 135.416 122.458 135.405C122.46 135.39 122.482 135.387 122.478 135.37C122.489 135.363 122.487 135.348 122.498 135.339C122.509 135.332 122.506 135.317 122.517 135.308C122.528 135.302 122.533 135.288 122.539 135.277C122.546 135.266 122.557 135.26 122.566 135.249C122.577 135.238 122.581 135.222 122.592 135.211C122.605 135.203 122.616 135.189 122.627 135.178C122.638 135.167 122.647 135.159 122.658 135.148C122.669 135.137 122.682 135.126 122.691 135.112C122.702 135.099 122.72 135.092 122.733 135.081C122.746 135.07 122.755 135.055 122.773 135.051C122.782 135.048 122.788 135.037 122.793 135.031C122.799 135.022 122.81 135.026 122.817 135.018C122.826 135.007 122.839 135.002 122.85 134.993C122.859 134.985 122.872 134.98 122.883 134.978C122.896 134.974 122.9 134.956 122.918 134.956C122.927 134.956 122.936 134.945 122.944 134.941C122.955 134.936 122.969 134.934 122.977 134.925C122.986 134.919 122.999 134.919 123.004 134.91C123.017 134.914 123.021 134.894 123.032 134.899C123.039 134.883 123.061 134.897 123.07 134.881C123.083 134.881 123.094 134.864 123.11 134.87C123.116 134.859 123.129 134.864 123.136 134.855C123.143 134.846 123.158 134.857 123.167 134.844C123.173 134.835 123.189 134.846 123.195 134.833C123.215 134.835 123.228 134.815 123.248 134.822C123.261 134.815 123.272 134.811 123.288 134.809C123.29 134.809 123.292 134.802 123.294 134.802C123.303 134.802 123.316 134.804 123.323 134.8C123.332 134.793 123.338 134.789 123.349 134.791C123.363 134.795 123.369 134.78 123.38 134.78C123.391 134.78 123.402 134.78 123.413 134.78C123.422 134.767 123.438 134.771 123.449 134.771C123.462 134.773 123.468 134.758 123.484 134.76C123.495 134.762 123.506 134.76 123.517 134.76C123.539 134.74 123.567 134.756 123.592 134.749C123.603 134.747 123.614 134.736 123.627 134.74C123.64 134.742 123.653 134.74 123.666 134.74C123.688 134.76 123.702 134.76 123.71 134.76Z" fill="white"></path><path d="M221.482 80.187H124.87V129.32H221.482V80.187Z" fill="#C7DBF9" stroke="#002138" stroke-width="1.5" stroke-linecap="round" stroke-linejoin="round"></path><path d="M152.993 93.504H200.803" stroke="black" stroke-width="1.5" stroke-miterlimit="10"></path><path d="M131.487 111.537H214.948" stroke="#162020" stroke-width="1.5" stroke-miterlimit="10"></path><path d="M131.487 118.485H214.948" stroke="#162020" stroke-width="1.5" stroke-miterlimit="10"></path><path d="M139.678 101.695C144.202 101.695 147.869 98.0276 147.869 93.504C147.869 88.9803 144.202 85.3132 139.678 85.3132C135.154 85.3132 131.487 88.9803 131.487 93.504C131.487 98.0276 135.154 101.695 139.678 101.695Z" fill="black"></path><path d="M140.479 92.8454L143.613 89.2016H142.871L140.149 92.3642L137.975 89.2016H135.467L138.754 93.9852L135.467 97.8064H136.209L139.082 94.4664L141.378 97.8064H143.886L140.477 92.8454H140.479ZM139.462 94.028L139.129 93.5509L136.479 89.7603H137.621L139.759 92.8189L140.092 93.296L142.871 97.2721H141.729L139.462 94.028Z" fill="white"></path><path d="M97.2646 107.036H194.183C195.017 107.036 195.732 107.751 195.732 108.585V141.249C195.732 142.084 195.017 142.799 194.183 142.799H97.2646C96.4301 142.799 95.7148 142.084 95.7148 141.249V108.585C95.7148 107.632 96.4301 107.036 97.2646 107.036Z" fill="#A1C2F8" stroke="black" stroke-width="1.5" stroke-linecap="round" stroke-linejoin="round"></path><path d="M131.099 124.687H182.478" stroke="black" stroke-width="1.5" stroke-linecap="round" stroke-linejoin="round"></path><path d="M131.099 130.409H186.055" stroke="black" stroke-width="1.5" stroke-linecap="round" stroke-linejoin="round"></path><path d="M131.099 119.442H186.055" stroke="black" stroke-width="1.5" stroke-linecap="round" stroke-linejoin="round"></path><path d="M114.669 134.812C120.134 134.812 124.564 130.382 124.564 124.917C124.564 119.453 120.134 115.023 114.669 115.023C109.205 115.023 104.775 119.453 104.775 124.917C104.775 130.382 109.205 134.812 114.669 134.812Z" fill="#2B87D3"></path><path d="M115.234 119.47C115.246 119.464 115.252 119.458 115.261 119.458C115.273 119.455 115.282 119.458 115.294 119.458C115.935 119.458 116.579 119.458 117.22 119.458C117.228 119.458 117.237 119.458 117.243 119.458C117.246 119.461 117.246 119.461 117.249 119.464C117.249 119.467 117.249 119.467 117.249 119.47C117.255 119.968 117.252 121.253 117.246 121.345C117.228 121.345 117.208 121.345 117.19 121.345C116.859 121.345 116.525 121.345 116.194 121.345C116.161 121.345 116.125 121.333 116.093 121.357C116.09 121.36 116.081 121.357 116.072 121.357C116.051 121.357 116.033 121.357 116.012 121.36C116 121.378 115.979 121.369 115.964 121.372C115.953 121.393 115.923 121.375 115.911 121.399C115.89 121.396 115.878 121.42 115.857 121.414C115.851 121.414 115.845 121.423 115.836 121.426C115.818 121.429 115.809 121.453 115.789 121.456C115.777 121.458 115.768 121.473 115.762 121.482C115.753 121.494 115.738 121.488 115.729 121.5C115.711 121.524 115.684 121.539 115.672 121.569C115.649 121.587 115.646 121.619 115.628 121.643C115.625 121.649 115.622 121.658 115.619 121.664C115.613 121.67 115.613 121.679 115.61 121.685C115.607 121.688 115.604 121.694 115.604 121.694C115.613 121.724 115.583 121.745 115.589 121.774C115.58 121.792 115.574 121.813 115.574 121.834C115.577 121.855 115.574 121.873 115.574 121.894C115.574 122.24 115.574 122.588 115.574 122.934C115.574 122.952 115.574 122.97 115.574 122.988C116.134 122.988 116.689 122.988 117.24 122.988C117.243 122.991 117.246 122.994 117.246 122.994C117.246 122.997 117.246 122.997 117.246 123C117.246 123.038 117.246 123.08 117.246 123.119C117.246 123.134 117.228 123.143 117.231 123.161C117.234 123.176 117.231 123.19 117.231 123.205C117.231 123.217 117.231 123.232 117.231 123.244C117.231 123.259 117.231 123.274 117.231 123.289C117.231 123.301 117.231 123.31 117.222 123.319C117.217 123.325 117.22 123.334 117.22 123.342C117.22 123.381 117.22 123.423 117.22 123.462C117.22 123.477 117.225 123.492 117.211 123.503C117.205 123.506 117.208 123.518 117.208 123.527C117.208 123.56 117.208 123.593 117.208 123.626C117.208 123.644 117.214 123.661 117.196 123.673C117.19 123.676 117.193 123.688 117.193 123.697C117.193 123.73 117.193 123.763 117.193 123.796C117.193 123.816 117.202 123.84 117.181 123.858C117.178 123.861 117.181 123.867 117.181 123.87C117.181 123.873 117.181 123.873 117.181 123.876C117.181 123.891 117.181 123.906 117.181 123.921C117.181 123.936 117.181 123.951 117.181 123.966C117.181 123.977 117.178 123.992 117.181 124.004C117.184 124.022 117.169 124.031 117.169 124.046C117.169 124.076 117.169 124.109 117.169 124.138C117.169 124.153 117.169 124.168 117.169 124.183C117.169 124.198 117.169 124.213 117.157 124.225C117.154 124.228 117.157 124.237 117.157 124.243C117.157 124.287 117.157 124.332 117.157 124.374C117.157 124.395 117.136 124.41 117.142 124.434C117.145 124.454 117.142 124.478 117.142 124.499C117.142 124.52 117.142 124.544 117.142 124.565C117.142 124.583 117.124 124.597 117.127 124.618C117.13 124.636 117.127 124.657 117.127 124.678C117.127 124.699 117.127 124.717 117.127 124.738C117.127 124.755 117.109 124.764 117.112 124.785C117.115 124.803 117.112 124.821 117.112 124.839C117.1 124.845 117.088 124.857 117.076 124.86C117.064 124.863 117.05 124.86 117.038 124.86C116.585 124.86 116.131 124.86 115.678 124.86C115.657 124.86 115.634 124.86 115.616 124.86C115.613 124.863 115.61 124.866 115.61 124.866C115.61 124.869 115.61 124.869 115.61 124.872C115.61 124.884 115.61 124.893 115.61 124.905C115.61 126.723 115.61 128.544 115.61 130.363C115.61 130.366 115.61 130.372 115.61 130.375C115.61 130.378 115.61 130.378 115.61 130.381C115.61 130.384 115.61 130.387 115.61 130.387C115.61 130.39 115.607 130.39 115.604 130.393C114.847 130.393 114.089 130.393 113.335 130.393C113.332 130.39 113.329 130.39 113.329 130.387C113.329 130.384 113.329 130.378 113.329 130.375C113.329 128.547 113.329 126.717 113.329 124.89C113.32 124.878 113.308 124.884 113.299 124.884C112.918 124.884 112.539 124.884 112.158 124.884C112.137 124.884 112.113 124.884 112.092 124.884C112.086 124.806 112.083 123.703 112.089 122.979C112.092 122.976 112.092 122.976 112.095 122.973C112.098 122.973 112.098 122.97 112.101 122.97C112.495 122.97 112.888 122.97 113.282 122.97C113.285 122.97 113.285 122.967 113.288 122.967C113.294 122.961 113.291 122.949 113.291 122.943C113.291 122.866 113.291 122.788 113.291 122.714C113.291 122.684 113.279 122.648 113.302 122.618C113.305 122.612 113.302 122.6 113.302 122.591C113.302 122.245 113.302 121.903 113.302 121.557C113.302 121.542 113.308 121.527 113.294 121.515C113.288 121.512 113.291 121.5 113.291 121.491C113.291 121.441 113.291 121.39 113.291 121.339C113.291 121.321 113.299 121.312 113.302 121.298C113.305 121.283 113.302 121.268 113.302 121.253C113.302 121.223 113.302 121.196 113.302 121.166C113.302 121.154 113.305 121.143 113.302 121.134C113.294 121.107 113.32 121.092 113.317 121.065C113.314 121.044 113.317 121.02 113.317 120.999C113.344 120.979 113.323 120.949 113.332 120.925C113.338 120.91 113.35 120.895 113.344 120.877C113.341 120.862 113.347 120.847 113.356 120.835C113.344 120.806 113.374 120.785 113.371 120.755C113.368 120.74 113.392 120.728 113.383 120.707C113.404 120.695 113.389 120.666 113.41 120.654C113.401 120.63 113.428 120.615 113.425 120.594C113.425 120.585 113.431 120.576 113.437 120.567C113.446 120.555 113.449 120.543 113.452 120.525C113.452 120.516 113.46 120.502 113.466 120.493C113.475 120.481 113.472 120.463 113.487 120.454C113.481 120.436 113.505 120.43 113.502 120.415C113.514 120.409 113.514 120.394 113.52 120.382C113.529 120.37 113.538 120.359 113.538 120.344C113.541 120.323 113.571 120.32 113.565 120.296C113.58 120.287 113.577 120.266 113.592 120.254C113.607 120.245 113.604 120.224 113.618 120.212C113.633 120.203 113.639 120.186 113.648 120.171C113.657 120.156 113.672 120.147 113.684 120.132C113.699 120.117 113.705 120.096 113.72 120.081C113.738 120.069 113.753 120.051 113.767 120.037C113.782 120.022 113.794 120.01 113.809 119.995C113.824 119.98 113.842 119.965 113.854 119.947C113.869 119.929 113.893 119.92 113.911 119.905C113.928 119.89 113.94 119.87 113.964 119.864C113.976 119.861 113.985 119.846 113.991 119.837C114 119.825 114.015 119.831 114.024 119.819C114.036 119.804 114.054 119.798 114.069 119.786C114.081 119.774 114.098 119.768 114.113 119.765C114.131 119.759 114.137 119.735 114.161 119.735C114.173 119.735 114.185 119.721 114.197 119.715C114.212 119.709 114.23 119.706 114.241 119.694C114.253 119.685 114.271 119.685 114.277 119.673C114.295 119.679 114.301 119.652 114.316 119.658C114.325 119.637 114.355 119.655 114.367 119.634C114.385 119.634 114.399 119.61 114.42 119.619C114.429 119.604 114.447 119.61 114.456 119.598C114.465 119.586 114.486 119.601 114.498 119.583C114.507 119.572 114.528 119.586 114.537 119.569C114.563 119.572 114.581 119.545 114.608 119.554C114.626 119.545 114.641 119.539 114.662 119.536C114.665 119.536 114.668 119.527 114.671 119.527C114.683 119.527 114.701 119.53 114.709 119.524C114.721 119.515 114.73 119.509 114.745 119.512C114.763 119.518 114.772 119.497 114.787 119.497C114.802 119.497 114.817 119.497 114.832 119.497C114.844 119.479 114.865 119.485 114.879 119.485C114.897 119.488 114.906 119.467 114.927 119.47C114.942 119.473 114.957 119.47 114.972 119.47C115.002 119.443 115.04 119.464 115.073 119.455C115.088 119.452 115.103 119.437 115.121 119.443C115.139 119.446 115.157 119.443 115.175 119.443C115.204 119.47 115.222 119.47 115.234 119.47Z" fill="white"></path><circle cx="390" cy="220.536" r="112.75" stroke="white" stroke-width="1.5"></circle></g><defs><filter id="filter0_f_298_59" x="-444.374" y="-307.728" width="1091.46" height="1007.46" filterUnits="userSpaceOnUse" color-interpolation-filters="sRGB"><feFlood flood-opacity="0" result="BackgroundImageFix"></feFlood><feBlend mode="normal" in="SourceGraphic" in2="BackgroundImageFix" result="shape"></feBlend><feGaussianBlur stdDeviation="148.823" result="effect1_foregroundBlur_298_59"></feGaussianBlur></filter><filter id="filter1_f_298_59" x="-409.322" y="-288.316" width="1091.46" height="1007.46" filterUnits="userSpaceOnUse" color-interpolation-filters="sRGB"><feFlood flood-opacity="0" result="BackgroundImageFix"></feFlood><feBlend mode="normal" in="SourceGraphic" in2="BackgroundImageFix" result="shape"></feBlend><feGaussianBlur stdDeviation="148.823" result="effect1_foregroundBlur_298_59"></feGaussianBlur></filter><clipPath id="clip0_298_59"><rect width="780" height="440" fill="white"></rect></clipPath><clipPath id="clip1_298_59"><rect width="495" height="827" fill="white" transform="translate(819.294 -55.039) rotate(90)"></rect></clipPath></defs></svg>